<svg xmlns="http://www.w3.org/2000/svg" version="1.1" xmlns:xlink="http://www.w3.org/1999/xlink" width="48" height="48"><svg id="SvgjsSvg1001" xmlns="http://www.w3.org/2000/svg" version="1.1" viewBox="0 0 48 48">
  <!-- Generator: Adobe Illustrator 29.7.0, SVG Export Plug-In . SVG Version: 2.1.1 Build 138)  -->
  <defs>
    <style>
      .st0 {
        fill: #288dcf;
      }

      .st1 {
        fill: #fff;
      }

      .st2 {
        font-family: Avenir-Black, Avenir;
        font-size: 36.66px;
        font-weight: 800;
      }
    </style>
  </defs>
  <g>
    <rect class="st1" x="7.38" y="6.88" width="34.25" height="34.25" rx=".77" ry=".77"></rect>
    <path d="M40.85,7.25c.22,0,.4.18.4.4v32.7c0,.22-.18.4-.4.4H8.15c-.22,0-.4-.18-.4-.4V7.65c0-.22.18-.4.4-.4h32.7M40.85,6.5H8.15c-.63,0-1.15.51-1.15,1.15v32.7c0,.63.51,1.15,1.15,1.15h32.7c.63,0,1.15-.51,1.15-1.15V7.65c0-.63-.51-1.15-1.15-1.15h0Z"></path>
  </g>
  <text class="st2" transform="translate(15 34.31) scale(.83 1)"><tspan x="0" y="0">B</tspan></text>
  <path class="st0" d="M12.63,38c20.86-2.09,21.94-3.59,22-2.78,0,.06,0,.13,0,.2l-.18,1.56c-.02.2-.09.33-.16.33l-21.65.69h0Z"></path>
</svg><style>@media (prefers-color-scheme: light) { :root { filter: none; } }
@media (prefers-color-scheme: dark) { :root { filter: none; } }
</style></svg>